<?xml version="1.0" encoding="utf-8" standalone="no"?>
<!DOCTYPE svg PUBLIC "-//W3C//DTD SVG 1.1//EN"
  "http://www.w3.org/Graphics/SVG/1.1/DTD/svg11.dtd">
<svg xmlns:xlink="http://www.w3.org/1999/xlink" width="1008pt" height="360pt" viewBox="0 0 1008 360" xmlns="http://www.w3.org/2000/svg" version="1.1">
 <metadata>
  <rdf:RDF xmlns:dc="http://purl.org/dc/elements/1.1/" xmlns:cc="http://creativecommons.org/ns#" xmlns:rdf="http://www.w3.org/1999/02/22-rdf-syntax-ns#">
   <cc:Work>
    <dc:type rdf:resource="http://purl.org/dc/dcmitype/StillImage"/>
    <dc:date>2025-12-11T17:09:13.651656</dc:date>
    <dc:format>image/svg+xml</dc:format>
    <dc:creator>
     <cc:Agent>
      <dc:title>Matplotlib v3.10.8, https://matplotlib.org/</dc:title>
     </cc:Agent>
    </dc:creator>
   </cc:Work>
  </rdf:RDF>
 </metadata>
 <defs>
  <style type="text/css">*{stroke-linejoin: round; stroke-linecap: butt}</style>
 </defs>
 <g id="figure_1">
  <g id="patch_1">
   <path d="M 0 360 
L 1008 360 
L 1008 0 
L 0 0 
z
" style="fill: #ffffff"/>
  </g>
  <g id="axes_1">
   <g id="patch_2">
    <path d="M 57.17 298.16139 
L 500.915 298.16139 
L 500.915 26.88 
L 57.17 26.88 
z
" style="fill: #ffffff"/>
   </g>
   <g id="matplotlib.axis_1">
    <g id="xtick_1">
     <g id="line2d_1">
      <defs>
       <path id="mc03caffd9a" d="M 0 0 
L 0 3.5 
" style="stroke: #000000; stroke-width: 0.8"/>
      </defs>
      <g>
       <use xlink:href="#mc03caffd9a" x="77.340227" y="298.16139" style="stroke: #000000; stroke-width: 0.8"/>
      </g>
     </g>
     <g id="text_1">
      <!-- 0 -->
      <g transform="translate(74.158977 312.759827) scale(0.1 -0.1)">
       <defs>
        <path id="DejaVuSans-30" d="M 2034 4250 
Q 1547 4250 1301 3770 
Q 1056 3291 1056 2328 
Q 1056 1369 1301 889 
Q 1547 409 2034 409 
Q 2525 409 2770 889 
Q 3016 1369 3016 2328 
Q 3016 3291 2770 3770 
Q 2525 4250 2034 4250 
z
M 2034 4750 
Q 2819 4750 3233 4129 
Q 3647 3509 3647 2328 
Q 3647 1150 3233 529 
Q 2819 -91 2034 -91 
Q 1250 -91 836 529 
Q 422 1150 422 2328 
Q 422 3509 836 4129 
Q 1250 4750 2034 4750 
z
" transform="scale(0.015625)"/>
       </defs>
       <use xlink:href="#DejaVuSans-30"/>
      </g>
     </g>
    </g>
    <g id="xtick_2">
     <g id="line2d_2">
      <g>
       <use xlink:href="#mc03caffd9a" x="149.376753" y="298.16139" style="stroke: #000000; stroke-width: 0.8"/>
      </g>
     </g>
     <g id="text_2">
      <!-- 10 -->
      <g transform="translate(143.014253 312.759827) scale(0.1 -0.1)">
       <defs>
        <path id="DejaVuSans-31" d="M 794 531 
L 1825 531 
L 1825 4091 
L 703 3866 
L 703 4441 
L 1819 4666 
L 2450 4666 
L 2450 531 
L 3481 531 
L 3481 0 
L 794 0 
L 794 531 
z
" transform="scale(0.015625)"/>
       </defs>
       <use xlink:href="#DejaVuSans-31"/>
       <use xlink:href="#DejaVuSans-30" transform="translate(63.623047 0)"/>
      </g>
     </g>
    </g>
    <g id="xtick_3">
     <g id="line2d_3">
      <g>
       <use xlink:href="#mc03caffd9a" x="221.413279" y="298.16139" style="stroke: #000000; stroke-width: 0.8"/>
      </g>
     </g>
     <g id="text_3">
      <!-- 20 -->
      <g transform="translate(215.050779 312.759827) scale(0.1 -0.1)">
       <defs>
        <path id="DejaVuSans-32" d="M 1228 531 
L 3431 531 
L 3431 0 
L 469 0 
L 469 531 
Q 828 903 1448 1529 
Q 2069 2156 2228 2338 
Q 2531 2678 2651 2914 
Q 2772 3150 2772 3378 
Q 2772 3750 2511 3984 
Q 2250 4219 1831 4219 
Q 1534 4219 1204 4116 
Q 875 4013 500 3803 
L 500 4441 
Q 881 4594 1212 4672 
Q 1544 4750 1819 4750 
Q 2544 4750 2975 4387 
Q 3406 4025 3406 3419 
Q 3406 3131 3298 2873 
Q 3191 2616 2906 2266 
Q 2828 2175 2409 1742 
Q 1991 1309 1228 531 
z
" transform="scale(0.015625)"/>
       </defs>
       <use xlink:href="#DejaVuSans-32"/>
       <use xlink:href="#DejaVuSans-30" transform="translate(63.623047 0)"/>
      </g>
     </g>
    </g>
    <g id="xtick_4">
     <g id="line2d_4">
      <g>
       <use xlink:href="#mc03caffd9a" x="293.449805" y="298.16139" style="stroke: #000000; stroke-width: 0.8"/>
      </g>
     </g>
     <g id="text_4">
      <!-- 30 -->
      <g transform="translate(287.087305 312.759827) scale(0.1 -0.1)">
       <defs>
        <path id="DejaVuSans-33" d="M 2597 2516 
Q 3050 2419 3304 2112 
Q 3559 1806 3559 1356 
Q 3559 666 3084 287 
Q 2609 -91 1734 -91 
Q 1441 -91 1130 -33 
Q 819 25 488 141 
L 488 750 
Q 750 597 1062 519 
Q 1375 441 1716 441 
Q 2309 441 2620 675 
Q 2931 909 2931 1356 
Q 2931 1769 2642 2001 
Q 2353 2234 1838 2234 
L 1294 2234 
L 1294 2753 
L 1863 2753 
Q 2328 2753 2575 2939 
Q 2822 3125 2822 3475 
Q 2822 3834 2567 4026 
Q 2313 4219 1838 4219 
Q 1578 4219 1281 4162 
Q 984 4106 628 3988 
L 628 4550 
Q 988 4650 1302 4700 
Q 1616 4750 1894 4750 
Q 2613 4750 3031 4423 
Q 3450 4097 3450 3541 
Q 3450 3153 3228 2886 
Q 3006 2619 2597 2516 
z
" transform="scale(0.015625)"/>
       </defs>
       <use xlink:href="#DejaVuSans-33"/>
       <use xlink:href="#DejaVuSans-30" transform="translate(63.623047 0)"/>
      </g>
     </g>
    </g>
    <g id="xtick_5">
     <g id="line2d_5">
      <g>
       <use xlink:href="#mc03caffd9a" x="365.486331" y="298.16139" style="stroke: #000000; stroke-width: 0.8"/>
      </g>
     </g>
     <g id="text_5">
      <!-- 40 -->
      <g transform="translate(359.123831 312.759827) scale(0.1 -0.1)">
       <defs>
        <path id="DejaVuSans-34" d="M 2419 4116 
L 825 1625 
L 2419 1625 
L 2419 4116 
z
M 2253 4666 
L 3047 4666 
L 3047 1625 
L 3713 1625 
L 3713 1100 
L 3047 1100 
L 3047 0 
L 2419 0 
L 2419 1100 
L 313 1100 
L 313 1709 
L 2253 4666 
z
" transform="scale(0.015625)"/>
       </defs>
       <use xlink:href="#DejaVuSans-34"/>
       <use xlink:href="#DejaVuSans-30" transform="translate(63.623047 0)"/>
      </g>
     </g>
    </g>
    <g id="xtick_6">
     <g id="line2d_6">
      <g>
       <use xlink:href="#mc03caffd9a" x="437.522857" y="298.16139" style="stroke: #000000; stroke-width: 0.8"/>
      </g>
     </g>
     <g id="text_6">
      <!-- 50 -->
      <g transform="translate(431.160357 312.759827) scale(0.1 -0.1)">
       <defs>
        <path id="DejaVuSans-35" d="M 691 4666 
L 3169 4666 
L 3169 4134 
L 1269 4134 
L 1269 2991 
Q 1406 3038 1543 3061 
Q 1681 3084 1819 3084 
Q 2600 3084 3056 2656 
Q 3513 2228 3513 1497 
Q 3513 744 3044 326 
Q 2575 -91 1722 -91 
Q 1428 -91 1123 -41 
Q 819 9 494 109 
L 494 744 
Q 775 591 1075 516 
Q 1375 441 1709 441 
Q 2250 441 2565 725 
Q 2881 1009 2881 1497 
Q 2881 1984 2565 2268 
Q 2250 2553 1709 2553 
Q 1456 2553 1204 2497 
Q 953 2441 691 2322 
L 691 4666 
z
" transform="scale(0.015625)"/>
       </defs>
       <use xlink:href="#DejaVuSans-35"/>
       <use xlink:href="#DejaVuSans-30" transform="translate(63.623047 0)"/>
      </g>
     </g>
    </g>
   </g>
   <g id="matplotlib.axis_2">
    <g id="ytick_1">
     <g id="line2d_7">
      <defs>
       <path id="m1df52907ee" d="M 0 0 
L -3.5 0 
" style="stroke: #000000; stroke-width: 0.8"/>
      </defs>
      <g>
       <use xlink:href="#m1df52907ee" x="57.17" y="288.969721" style="stroke: #000000; stroke-width: 0.8"/>
      </g>
     </g>
     <g id="text_7">
      <!-- 4000 -->
      <g transform="translate(24.72 292.768939) scale(0.1 -0.1)">
       <use xlink:href="#DejaVuSans-34"/>
       <use xlink:href="#DejaVuSans-30" transform="translate(63.623047 0)"/>
       <use xlink:href="#DejaVuSans-30" transform="translate(127.246094 0)"/>
       <use xlink:href="#DejaVuSans-30" transform="translate(190.869141 0)"/>
      </g>
     </g>
    </g>
    <g id="ytick_2">
     <g id="line2d_8">
      <g>
       <use xlink:href="#m1df52907ee" x="57.17" y="257.657024" style="stroke: #000000; stroke-width: 0.8"/>
      </g>
     </g>
     <g id="text_8">
      <!-- 4500 -->
      <g transform="translate(24.72 261.456242) scale(0.1 -0.1)">
       <use xlink:href="#DejaVuSans-34"/>
       <use xlink:href="#DejaVuSans-35" transform="translate(63.623047 0)"/>
       <use xlink:href="#DejaVuSans-30" transform="translate(127.246094 0)"/>
       <use xlink:href="#DejaVuSans-30" transform="translate(190.869141 0)"/>
      </g>
     </g>
    </g>
    <g id="ytick_3">
     <g id="line2d_9">
      <g>
       <use xlink:href="#m1df52907ee" x="57.17" y="226.344327" style="stroke: #000000; stroke-width: 0.8"/>
      </g>
     </g>
     <g id="text_9">
      <!-- 5000 -->
      <g transform="translate(24.72 230.143546) scale(0.1 -0.1)">
       <use xlink:href="#DejaVuSans-35"/>
       <use xlink:href="#DejaVuSans-30" transform="translate(63.623047 0)"/>
       <use xlink:href="#DejaVuSans-30" transform="translate(127.246094 0)"/>
       <use xlink:href="#DejaVuSans-30" transform="translate(190.869141 0)"/>
      </g>
     </g>
    </g>
    <g id="ytick_4">
     <g id="line2d_10">
      <g>
       <use xlink:href="#m1df52907ee" x="57.17" y="195.03163" style="stroke: #000000; stroke-width: 0.8"/>
      </g>
     </g>
     <g id="text_10">
      <!-- 5500 -->
      <g transform="translate(24.72 198.830849) scale(0.1 -0.1)">
       <use xlink:href="#DejaVuSans-35"/>
       <use xlink:href="#DejaVuSans-35" transform="translate(63.623047 0)"/>
       <use xlink:href="#DejaVuSans-30" transform="translate(127.246094 0)"/>
       <use xlink:href="#DejaVuSans-30" transform="translate(190.869141 0)"/>
      </g>
     </g>
    </g>
    <g id="ytick_5">
     <g id="line2d_11">
      <g>
       <use xlink:href="#m1df52907ee" x="57.17" y="163.718933" style="stroke: #000000; stroke-width: 0.8"/>
      </g>
     </g>
     <g id="text_11">
      <!-- 6000 -->
      <g transform="translate(24.72 167.518152) scale(0.1 -0.1)">
       <defs>
        <path id="DejaVuSans-36" d="M 2113 2584 
Q 1688 2584 1439 2293 
Q 1191 2003 1191 1497 
Q 1191 994 1439 701 
Q 1688 409 2113 409 
Q 2538 409 2786 701 
Q 3034 994 3034 1497 
Q 3034 2003 2786 2293 
Q 2538 2584 2113 2584 
z
M 3366 4563 
L 3366 3988 
Q 3128 4100 2886 4159 
Q 2644 4219 2406 4219 
Q 1781 4219 1451 3797 
Q 1122 3375 1075 2522 
Q 1259 2794 1537 2939 
Q 1816 3084 2150 3084 
Q 2853 3084 3261 2657 
Q 3669 2231 3669 1497 
Q 3669 778 3244 343 
Q 2819 -91 2113 -91 
Q 1303 -91 875 529 
Q 447 1150 447 2328 
Q 447 3434 972 4092 
Q 1497 4750 2381 4750 
Q 2619 4750 2861 4703 
Q 3103 4656 3366 4563 
z
" transform="scale(0.015625)"/>
       </defs>
       <use xlink:href="#DejaVuSans-36"/>
       <use xlink:href="#DejaVuSans-30" transform="translate(63.623047 0)"/>
       <use xlink:href="#DejaVuSans-30" transform="translate(127.246094 0)"/>
       <use xlink:href="#DejaVuSans-30" transform="translate(190.869141 0)"/>
      </g>
     </g>
    </g>
    <g id="ytick_6">
     <g id="line2d_12">
      <g>
       <use xlink:href="#m1df52907ee" x="57.17" y="132.406236" style="stroke: #000000; stroke-width: 0.8"/>
      </g>
     </g>
     <g id="text_12">
      <!-- 6500 -->
      <g transform="translate(24.72 136.205455) scale(0.1 -0.1)">
       <use xlink:href="#DejaVuSans-36"/>
       <use xlink:href="#DejaVuSans-35" transform="translate(63.623047 0)"/>
       <use xlink:href="#DejaVuSans-30" transform="translate(127.246094 0)"/>
       <use xlink:href="#DejaVuSans-30" transform="translate(190.869141 0)"/>
      </g>
     </g>
    </g>
    <g id="ytick_7">
     <g id="line2d_13">
      <g>
       <use xlink:href="#m1df52907ee" x="57.17" y="101.09354" style="stroke: #000000; stroke-width: 0.8"/>
      </g>
     </g>
     <g id="text_13">
      <!-- 7000 -->
      <g transform="translate(24.72 104.892758) scale(0.1 -0.1)">
       <defs>
        <path id="DejaVuSans-37" d="M 525 4666 
L 3525 4666 
L 3525 4397 
L 1831 0 
L 1172 0 
L 2766 4134 
L 525 4134 
L 525 4666 
z
" transform="scale(0.015625)"/>
       </defs>
       <use xlink:href="#DejaVuSans-37"/>
       <use xlink:href="#DejaVuSans-30" transform="translate(63.623047 0)"/>
       <use xlink:href="#DejaVuSans-30" transform="translate(127.246094 0)"/>
       <use xlink:href="#DejaVuSans-30" transform="translate(190.869141 0)"/>
      </g>
     </g>
    </g>
    <g id="ytick_8">
     <g id="line2d_14">
      <g>
       <use xlink:href="#m1df52907ee" x="57.17" y="69.780843" style="stroke: #000000; stroke-width: 0.8"/>
      </g>
     </g>
     <g id="text_14">
      <!-- 7500 -->
      <g transform="translate(24.72 73.580062) scale(0.1 -0.1)">
       <use xlink:href="#DejaVuSans-37"/>
       <use xlink:href="#DejaVuSans-35" transform="translate(63.623047 0)"/>
       <use xlink:href="#DejaVuSans-30" transform="translate(127.246094 0)"/>
       <use xlink:href="#DejaVuSans-30" transform="translate(190.869141 0)"/>
      </g>
     </g>
    </g>
    <g id="ytick_9">
     <g id="line2d_15">
      <g>
       <use xlink:href="#m1df52907ee" x="57.17" y="38.468146" style="stroke: #000000; stroke-width: 0.8"/>
      </g>
     </g>
     <g id="text_15">
      <!-- 8000 -->
      <g transform="translate(24.72 42.267365) scale(0.1 -0.1)">
       <defs>
        <path id="DejaVuSans-38" d="M 2034 2216 
Q 1584 2216 1326 1975 
Q 1069 1734 1069 1313 
Q 1069 891 1326 650 
Q 1584 409 2034 409 
Q 2484 409 2743 651 
Q 3003 894 3003 1313 
Q 3003 1734 2745 1975 
Q 2488 2216 2034 2216 
z
M 1403 2484 
Q 997 2584 770 2862 
Q 544 3141 544 3541 
Q 544 4100 942 4425 
Q 1341 4750 2034 4750 
Q 2731 4750 3128 4425 
Q 3525 4100 3525 3541 
Q 3525 3141 3298 2862 
Q 3072 2584 2669 2484 
Q 3125 2378 3379 2068 
Q 3634 1759 3634 1313 
Q 3634 634 3220 271 
Q 2806 -91 2034 -91 
Q 1263 -91 848 271 
Q 434 634 434 1313 
Q 434 1759 690 2068 
Q 947 2378 1403 2484 
z
M 1172 3481 
Q 1172 3119 1398 2916 
Q 1625 2713 2034 2713 
Q 2441 2713 2670 2916 
Q 2900 3119 2900 3481 
Q 2900 3844 2670 4047 
Q 2441 4250 2034 4250 
Q 1625 4250 1398 4047 
Q 1172 3844 1172 3481 
z
" transform="scale(0.015625)"/>
       </defs>
       <use xlink:href="#DejaVuSans-38"/>
       <use xlink:href="#DejaVuSans-30" transform="translate(63.623047 0)"/>
       <use xlink:href="#DejaVuSans-30" transform="translate(127.246094 0)"/>
       <use xlink:href="#DejaVuSans-30" transform="translate(190.869141 0)"/>
      </g>
     </g>
    </g>
    <g id="text_16">
     <!-- &lt;H_P&gt; -->
     <g transform="translate(18.362187 180.175382) rotate(-90) scale(0.1 -0.1)">
      <defs>
       <path id="DejaVuSans-3c" d="M 4684 3150 
L 1459 2003 
L 4684 863 
L 4684 294 
L 678 1747 
L 678 2266 
L 4684 3719 
L 4684 3150 
z
" transform="scale(0.015625)"/>
       <path id="DejaVuSans-48" d="M 628 4666 
L 1259 4666 
L 1259 2753 
L 3553 2753 
L 3553 4666 
L 4184 4666 
L 4184 0 
L 3553 0 
L 3553 2222 
L 1259 2222 
L 1259 0 
L 628 0 
L 628 4666 
z
" transform="scale(0.015625)"/>
       <path id="DejaVuSans-5f" d="M 3263 -1063 
L 3263 -1509 
L -63 -1509 
L -63 -1063 
L 3263 -1063 
z
" transform="scale(0.015625)"/>
       <path id="DejaVuSans-50" d="M 1259 4147 
L 1259 2394 
L 2053 2394 
Q 2494 2394 2734 2622 
Q 2975 2850 2975 3272 
Q 2975 3691 2734 3919 
Q 2494 4147 2053 4147 
L 1259 4147 
z
M 628 4666 
L 2053 4666 
Q 2838 4666 3239 4311 
Q 3641 3956 3641 3272 
Q 3641 2581 3239 2228 
Q 2838 1875 2053 1875 
L 1259 1875 
L 1259 0 
L 628 0 
L 628 4666 
z
" transform="scale(0.015625)"/>
       <path id="DejaVuSans-3e" d="M 678 3150 
L 678 3719 
L 4684 2266 
L 4684 1747 
L 678 294 
L 678 863 
L 3897 2003 
L 678 3150 
z
" transform="scale(0.015625)"/>
      </defs>
      <use xlink:href="#DejaVuSans-3c"/>
      <use xlink:href="#DejaVuSans-48" transform="translate(83.789062 0)"/>
      <use xlink:href="#DejaVuSans-5f" transform="translate(158.984375 0)"/>
      <use xlink:href="#DejaVuSans-50" transform="translate(208.984375 0)"/>
      <use xlink:href="#DejaVuSans-3e" transform="translate(269.287109 0)"/>
     </g>
    </g>
   </g>
   <g id="line2d_16">
    <path d="M 77.340227 131.211321 
L 84.54388 154.718219 
L 91.747532 202.626594 
L 98.951185 200.988048 
L 106.154838 143.930659 
L 113.35849 201.954325 
L 120.562143 54.513706 
L 127.765795 39.210972 
L 134.969448 80.086829 
L 142.173101 204.254057 
L 149.376753 188.648598 
L 156.580406 179.659113 
L 163.784058 222.379582 
L 170.987711 246.992399 
L 178.191364 261.213213 
L 185.395016 255.126551 
L 192.598669 267.713152 
L 199.802321 263.686249 
L 207.005974 267.43489 
L 214.209627 257.604112 
L 221.413279 284.141585 
L 228.616932 263.051494 
L 235.820584 253.379776 
L 243.024237 267.062933 
L 250.22789 265.686937 
L 257.431542 274.24611 
L 264.635195 277.440899 
L 271.838847 262.638079 
L 279.0425 264.99961 
L 286.246153 275.177014 
L 293.449805 265.882306 
L 300.653458 278.406905 
L 307.85711 277.388134 
L 315.060763 280.499827 
L 322.264416 265.43179 
L 329.468068 274.792993 
L 336.671721 262.217579 
L 343.875373 253.640226 
L 351.079026 284.309044 
L 358.282679 273.659067 
L 365.486331 278.342494 
L 372.689984 282.827646 
L 379.893636 278.340591 
L 387.097289 266.600154 
L 394.300942 281.41148 
L 401.504594 273.936597 
L 408.708247 279.471562 
L 415.911899 285.782445 
L 423.115552 283.217798 
L 430.319205 285.710945 
L 437.522857 285.535033 
L 444.72651 285.564187 
L 451.930162 285.38524 
L 459.133815 285.564471 
L 466.337468 285.830417 
L 473.54112 285.381993 
L 480.744773 285.422502 
" clip-path="url(#p6eda4b1791)" style="fill: none; stroke: #1f77b4; stroke-width: 1.5; stroke-linecap: square"/>
    <defs>
     <path id="m1d61e63493" d="M 0 1.5 
C 0.397805 1.5 0.77937 1.341951 1.06066 1.06066 
C 1.341951 0.77937 1.5 0.397805 1.5 0 
C 1.5 -0.397805 1.341951 -0.77937 1.06066 -1.06066 
C 0.77937 -1.341951 0.397805 -1.5 0 -1.5 
C -0.397805 -1.5 -0.77937 -1.341951 -1.06066 -1.06066 
C -1.341951 -0.77937 -1.5 -0.397805 -1.5 0 
C -1.5 0.397805 -1.341951 0.77937 -1.06066 1.06066 
C -0.77937 1.341951 -0.397805 1.5 0 1.5 
z
" style="stroke: #1f77b4"/>
    </defs>
    <g clip-path="url(#p6eda4b1791)">
     <use xlink:href="#m1d61e63493" x="77.340227" y="131.211321" style="fill: #1f77b4; stroke: #1f77b4"/>
     <use xlink:href="#m1d61e63493" x="84.54388" y="154.718219" style="fill: #1f77b4; stroke: #1f77b4"/>
     <use xlink:href="#m1d61e63493" x="91.747532" y="202.626594" style="fill: #1f77b4; stroke: #1f77b4"/>
     <use xlink:href="#m1d61e63493" x="98.951185" y="200.988048" style="fill: #1f77b4; stroke: #1f77b4"/>
     <use xlink:href="#m1d61e63493" x="106.154838" y="143.930659" style="fill: #1f77b4; stroke: #1f77b4"/>
     <use xlink:href="#m1d61e63493" x="113.35849" y="201.954325" style="fill: #1f77b4; stroke: #1f77b4"/>
     <use xlink:href="#m1d61e63493" x="120.562143" y="54.513706" style="fill: #1f77b4; stroke: #1f77b4"/>
     <use xlink:href="#m1d61e63493" x="127.765795" y="39.210972" style="fill: #1f77b4; stroke: #1f77b4"/>
     <use xlink:href="#m1d61e63493" x="134.969448" y="80.086829" style="fill: #1f77b4; stroke: #1f77b4"/>
     <use xlink:href="#m1d61e63493" x="142.173101" y="204.254057" style="fill: #1f77b4; stroke: #1f77b4"/>
     <use xlink:href="#m1d61e63493" x="149.376753" y="188.648598" style="fill: #1f77b4; stroke: #1f77b4"/>
     <use xlink:href="#m1d61e63493" x="156.580406" y="179.659113" style="fill: #1f77b4; stroke: #1f77b4"/>
     <use xlink:href="#m1d61e63493" x="163.784058" y="222.379582" style="fill: #1f77b4; stroke: #1f77b4"/>
     <use xlink:href="#m1d61e63493" x="170.987711" y="246.992399" style="fill: #1f77b4; stroke: #1f77b4"/>
     <use xlink:href="#m1d61e63493" x="178.191364" y="261.213213" style="fill: #1f77b4; stroke: #1f77b4"/>
     <use xlink:href="#m1d61e63493" x="185.395016" y="255.126551" style="fill: #1f77b4; stroke: #1f77b4"/>
     <use xlink:href="#m1d61e63493" x="192.598669" y="267.713152" style="fill: #1f77b4; stroke: #1f77b4"/>
     <use xlink:href="#m1d61e63493" x="199.802321" y="263.686249" style="fill: #1f77b4; stroke: #1f77b4"/>
     <use xlink:href="#m1d61e63493" x="207.005974" y="267.43489" style="fill: #1f77b4; stroke: #1f77b4"/>
     <use xlink:href="#m1d61e63493" x="214.209627" y="257.604112" style="fill: #1f77b4; stroke: #1f77b4"/>
     <use xlink:href="#m1d61e63493" x="221.413279" y="284.141585" style="fill: #1f77b4; stroke: #1f77b4"/>
     <use xlink:href="#m1d61e63493" x="228.616932" y="263.051494" style="fill: #1f77b4; stroke: #1f77b4"/>
     <use xlink:href="#m1d61e63493" x="235.820584" y="253.379776" style="fill: #1f77b4; stroke: #1f77b4"/>
     <use xlink:href="#m1d61e63493" x="243.024237" y="267.062933" style="fill: #1f77b4; stroke: #1f77b4"/>
     <use xlink:href="#m1d61e63493" x="250.22789" y="265.686937" style="fill: #1f77b4; stroke: #1f77b4"/>
     <use xlink:href="#m1d61e63493" x="257.431542" y="274.24611" style="fill: #1f77b4; stroke: #1f77b4"/>
     <use xlink:href="#m1d61e63493" x="264.635195" y="277.440899" style="fill: #1f77b4; stroke: #1f77b4"/>
     <use xlink:href="#m1d61e63493" x="271.838847" y="262.638079" style="fill: #1f77b4; stroke: #1f77b4"/>
     <use xlink:href="#m1d61e63493" x="279.0425" y="264.99961" style="fill: #1f77b4; stroke: #1f77b4"/>
     <use xlink:href="#m1d61e63493" x="286.246153" y="275.177014" style="fill: #1f77b4; stroke: #1f77b4"/>
     <use xlink:href="#m1d61e63493" x="293.449805" y="265.882306" style="fill: #1f77b4; stroke: #1f77b4"/>
     <use xlink:href="#m1d61e63493" x="300.653458" y="278.406905" style="fill: #1f77b4; stroke: #1f77b4"/>
     <use xlink:href="#m1d61e63493" x="307.85711" y="277.388134" style="fill: #1f77b4; stroke: #1f77b4"/>
     <use xlink:href="#m1d61e63493" x="315.060763" y="280.499827" style="fill: #1f77b4; stroke: #1f77b4"/>
     <use xlink:href="#m1d61e63493" x="322.264416" y="265.43179" style="fill: #1f77b4; stroke: #1f77b4"/>
     <use xlink:href="#m1d61e63493" x="329.468068" y="274.792993" style="fill: #1f77b4; stroke: #1f77b4"/>
     <use xlink:href="#m1d61e63493" x="336.671721" y="262.217579" style="fill: #1f77b4; stroke: #1f77b4"/>
     <use xlink:href="#m1d61e63493" x="343.875373" y="253.640226" style="fill: #1f77b4; stroke: #1f77b4"/>
     <use xlink:href="#m1d61e63493" x="351.079026" y="284.309044" style="fill: #1f77b4; stroke: #1f77b4"/>
     <use xlink:href="#m1d61e63493" x="358.282679" y="273.659067" style="fill: #1f77b4; stroke: #1f77b4"/>
     <use xlink:href="#m1d61e63493" x="365.486331" y="278.342494" style="fill: #1f77b4; stroke: #1f77b4"/>
     <use xlink:href="#m1d61e63493" x="372.689984" y="282.827646" style="fill: #1f77b4; stroke: #1f77b4"/>
     <use xlink:href="#m1d61e63493" x="379.893636" y="278.340591" style="fill: #1f77b4; stroke: #1f77b4"/>
     <use xlink:href="#m1d61e63493" x="387.097289" y="266.600154" style="fill: #1f77b4; stroke: #1f77b4"/>
     <use xlink:href="#m1d61e63493" x="394.300942" y="281.41148" style="fill: #1f77b4; stroke: #1f77b4"/>
     <use xlink:href="#m1d61e63493" x="401.504594" y="273.936597" style="fill: #1f77b4; stroke: #1f77b4"/>
     <use xlink:href="#m1d61e63493" x="408.708247" y="279.471562" style="fill: #1f77b4; stroke: #1f77b4"/>
     <use xlink:href="#m1d61e63493" x="415.911899" y="285.782445" style="fill: #1f77b4; stroke: #1f77b4"/>
     <use xlink:href="#m1d61e63493" x="423.115552" y="283.217798" style="fill: #1f77b4; stroke: #1f77b4"/>
     <use xlink:href="#m1d61e63493" x="430.319205" y="285.710945" style="fill: #1f77b4; stroke: #1f77b4"/>
     <use xlink:href="#m1d61e63493" x="437.522857" y="285.535033" style="fill: #1f77b4; stroke: #1f77b4"/>
     <use xlink:href="#m1d61e63493" x="444.72651" y="285.564187" style="fill: #1f77b4; stroke: #1f77b4"/>
     <use xlink:href="#m1d61e63493" x="451.930162" y="285.38524" style="fill: #1f77b4; stroke: #1f77b4"/>
     <use xlink:href="#m1d61e63493" x="459.133815" y="285.564471" style="fill: #1f77b4; stroke: #1f77b4"/>
     <use xlink:href="#m1d61e63493" x="466.337468" y="285.830417" style="fill: #1f77b4; stroke: #1f77b4"/>
     <use xlink:href="#m1d61e63493" x="473.54112" y="285.381993" style="fill: #1f77b4; stroke: #1f77b4"/>
     <use xlink:href="#m1d61e63493" x="480.744773" y="285.422502" style="fill: #1f77b4; stroke: #1f77b4"/>
    </g>
   </g>
   <g id="patch_3">
    <path d="M 57.17 298.16139 
L 57.17 26.88 
" style="fill: none; stroke: #000000; stroke-width: 0.8; stroke-linejoin: miter; stroke-linecap: square"/>
   </g>
   <g id="patch_4">
    <path d="M 500.915 298.16139 
L 500.915 26.88 
" style="fill: none; stroke: #000000; stroke-width: 0.8; stroke-linejoin: miter; stroke-linecap: square"/>
   </g>
   <g id="patch_5">
    <path d="M 57.17 298.16139 
L 500.915 298.16139 
" style="fill: none; stroke: #000000; stroke-width: 0.8; stroke-linejoin: miter; stroke-linecap: square"/>
   </g>
   <g id="patch_6">
    <path d="M 57.17 26.88 
L 500.915 26.88 
" style="fill: none; stroke: #000000; stroke-width: 0.8; stroke-linejoin: miter; stroke-linecap: square"/>
   </g>
   <g id="text_17">
    <!-- Convergence (p=3) -->
    <g transform="translate(220.236875 20.88) scale(0.12 -0.12)">
     <defs>
      <path id="DejaVuSans-43" d="M 4122 4306 
L 4122 3641 
Q 3803 3938 3442 4084 
Q 3081 4231 2675 4231 
Q 1875 4231 1450 3742 
Q 1025 3253 1025 2328 
Q 1025 1406 1450 917 
Q 1875 428 2675 428 
Q 3081 428 3442 575 
Q 3803 722 4122 1019 
L 4122 359 
Q 3791 134 3420 21 
Q 3050 -91 2638 -91 
Q 1578 -91 968 557 
Q 359 1206 359 2328 
Q 359 3453 968 4101 
Q 1578 4750 2638 4750 
Q 3056 4750 3426 4639 
Q 3797 4528 4122 4306 
z
" transform="scale(0.015625)"/>
      <path id="DejaVuSans-6f" d="M 1959 3097 
Q 1497 3097 1228 2736 
Q 959 2375 959 1747 
Q 959 1119 1226 758 
Q 1494 397 1959 397 
Q 2419 397 2687 759 
Q 2956 1122 2956 1747 
Q 2956 2369 2687 2733 
Q 2419 3097 1959 3097 
z
M 1959 3584 
Q 2709 3584 3137 3096 
Q 3566 2609 3566 1747 
Q 3566 888 3137 398 
Q 2709 -91 1959 -91 
Q 1206 -91 779 398 
Q 353 888 353 1747 
Q 353 2609 779 3096 
Q 1206 3584 1959 3584 
z
" transform="scale(0.015625)"/>
      <path id="DejaVuSans-6e" d="M 3513 2113 
L 3513 0 
L 2938 0 
L 2938 2094 
Q 2938 2591 2744 2837 
Q 2550 3084 2163 3084 
Q 1697 3084 1428 2787 
Q 1159 2491 1159 1978 
L 1159 0 
L 581 0 
L 581 3500 
L 1159 3500 
L 1159 2956 
Q 1366 3272 1645 3428 
Q 1925 3584 2291 3584 
Q 2894 3584 3203 3211 
Q 3513 2838 3513 2113 
z
" transform="scale(0.015625)"/>
      <path id="DejaVuSans-76" d="M 191 3500 
L 800 3500 
L 1894 563 
L 2988 3500 
L 3597 3500 
L 2284 0 
L 1503 0 
L 191 3500 
z
" transform="scale(0.015625)"/>
      <path id="DejaVuSans-65" d="M 3597 1894 
L 3597 1613 
L 953 1613 
Q 991 1019 1311 708 
Q 1631 397 2203 397 
Q 2534 397 2845 478 
Q 3156 559 3463 722 
L 3463 178 
Q 3153 47 2828 -22 
Q 2503 -91 2169 -91 
Q 1331 -91 842 396 
Q 353 884 353 1716 
Q 353 2575 817 3079 
Q 1281 3584 2069 3584 
Q 2775 3584 3186 3129 
Q 3597 2675 3597 1894 
z
M 3022 2063 
Q 3016 2534 2758 2815 
Q 2500 3097 2075 3097 
Q 1594 3097 1305 2825 
Q 1016 2553 972 2059 
L 3022 2063 
z
" transform="scale(0.015625)"/>
      <path id="DejaVuSans-72" d="M 2631 2963 
Q 2534 3019 2420 3045 
Q 2306 3072 2169 3072 
Q 1681 3072 1420 2755 
Q 1159 2438 1159 1844 
L 1159 0 
L 581 0 
L 581 3500 
L 1159 3500 
L 1159 2956 
Q 1341 3275 1631 3429 
Q 1922 3584 2338 3584 
Q 2397 3584 2469 3576 
Q 2541 3569 2628 3553 
L 2631 2963 
z
" transform="scale(0.015625)"/>
      <path id="DejaVuSans-67" d="M 2906 1791 
Q 2906 2416 2648 2759 
Q 2391 3103 1925 3103 
Q 1463 3103 1205 2759 
Q 947 2416 947 1791 
Q 947 1169 1205 825 
Q 1463 481 1925 481 
Q 2391 481 2648 825 
Q 2906 1169 2906 1791 
z
M 3481 434 
Q 3481 -459 3084 -895 
Q 2688 -1331 1869 -1331 
Q 1566 -1331 1297 -1286 
Q 1028 -1241 775 -1147 
L 775 -588 
Q 1028 -725 1275 -790 
Q 1522 -856 1778 -856 
Q 2344 -856 2625 -561 
Q 2906 -266 2906 331 
L 2906 616 
Q 2728 306 2450 153 
Q 2172 0 1784 0 
Q 1141 0 747 490 
Q 353 981 353 1791 
Q 353 2603 747 3093 
Q 1141 3584 1784 3584 
Q 2172 3584 2450 3431 
Q 2728 3278 2906 2969 
L 2906 3500 
L 3481 3500 
L 3481 434 
z
" transform="scale(0.015625)"/>
      <path id="DejaVuSans-63" d="M 3122 3366 
L 3122 2828 
Q 2878 2963 2633 3030 
Q 2388 3097 2138 3097 
Q 1578 3097 1268 2742 
Q 959 2388 959 1747 
Q 959 1106 1268 751 
Q 1578 397 2138 397 
Q 2388 397 2633 464 
Q 2878 531 3122 666 
L 3122 134 
Q 2881 22 2623 -34 
Q 2366 -91 2075 -91 
Q 1284 -91 818 406 
Q 353 903 353 1747 
Q 353 2603 823 3093 
Q 1294 3584 2113 3584 
Q 2378 3584 2631 3529 
Q 2884 3475 3122 3366 
z
" transform="scale(0.015625)"/>
      <path id="DejaVuSans-20" transform="scale(0.015625)"/>
      <path id="DejaVuSans-28" d="M 1984 4856 
Q 1566 4138 1362 3434 
Q 1159 2731 1159 2009 
Q 1159 1288 1364 580 
Q 1569 -128 1984 -844 
L 1484 -844 
Q 1016 -109 783 600 
Q 550 1309 550 2009 
Q 550 2706 781 3412 
Q 1013 4119 1484 4856 
L 1984 4856 
z
" transform="scale(0.015625)"/>
      <path id="DejaVuSans-70" d="M 1159 525 
L 1159 -1331 
L 581 -1331 
L 581 3500 
L 1159 3500 
L 1159 2969 
Q 1341 3281 1617 3432 
Q 1894 3584 2278 3584 
Q 2916 3584 3314 3078 
Q 3713 2572 3713 1747 
Q 3713 922 3314 415 
Q 2916 -91 2278 -91 
Q 1894 -91 1617 61 
Q 1341 213 1159 525 
z
M 3116 1747 
Q 3116 2381 2855 2742 
Q 2594 3103 2138 3103 
Q 1681 3103 1420 2742 
Q 1159 2381 1159 1747 
Q 1159 1113 1420 752 
Q 1681 391 2138 391 
Q 2594 391 2855 752 
Q 3116 1113 3116 1747 
z
" transform="scale(0.015625)"/>
      <path id="DejaVuSans-3d" d="M 678 2906 
L 4684 2906 
L 4684 2381 
L 678 2381 
L 678 2906 
z
M 678 1631 
L 4684 1631 
L 4684 1100 
L 678 1100 
L 678 1631 
z
" transform="scale(0.015625)"/>
      <path id="DejaVuSans-29" d="M 513 4856 
L 1013 4856 
Q 1481 4119 1714 3412 
Q 1947 2706 1947 2009 
Q 1947 1309 1714 600 
Q 1481 -109 1013 -844 
L 513 -844 
Q 928 -128 1133 580 
Q 1338 1288 1338 2009 
Q 1338 2731 1133 3434 
Q 928 4138 513 4856 
z
" transform="scale(0.015625)"/>
     </defs>
     <use xlink:href="#DejaVuSans-43"/>
     <use xlink:href="#DejaVuSans-6f" transform="translate(69.824219 0)"/>
     <use xlink:href="#DejaVuSans-6e" transform="translate(131.005859 0)"/>
     <use xlink:href="#DejaVuSans-76" transform="translate(194.384766 0)"/>
     <use xlink:href="#DejaVuSans-65" transform="translate(253.564453 0)"/>
     <use xlink:href="#DejaVuSans-72" transform="translate(315.087891 0)"/>
     <use xlink:href="#DejaVuSans-67" transform="translate(354.451172 0)"/>
     <use xlink:href="#DejaVuSans-65" transform="translate(417.927734 0)"/>
     <use xlink:href="#DejaVuSans-6e" transform="translate(479.451172 0)"/>
     <use xlink:href="#DejaVuSans-63" transform="translate(542.830078 0)"/>
     <use xlink:href="#DejaVuSans-65" transform="translate(597.810547 0)"/>
     <use xlink:href="#DejaVuSans-20" transform="translate(659.333984 0)"/>
     <use xlink:href="#DejaVuSans-28" transform="translate(691.121094 0)"/>
     <use xlink:href="#DejaVuSans-70" transform="translate(730.134766 0)"/>
     <use xlink:href="#DejaVuSans-3d" transform="translate(793.611328 0)"/>
     <use xlink:href="#DejaVuSans-33" transform="translate(877.400391 0)"/>
     <use xlink:href="#DejaVuSans-29" transform="translate(941.023438 0)"/>
    </g>
   </g>
  </g>
  <g id="axes_2">
   <g id="patch_7">
    <path d="M 553.455 298.16139 
L 997.2 298.16139 
L 997.2 26.88 
L 553.455 26.88 
z
" style="fill: #ffffff"/>
   </g>
   <g id="patch_8">
    <path d="M 573.625227 298.16139 
L 606.556211 298.16139 
L 606.556211 39.798161 
L 573.625227 39.798161 
z
" clip-path="url(#p0ee141bb85)" style="fill: #1f77b4"/>
   </g>
   <g id="patch_9">
    <path d="M 614.788956 298.16139 
L 647.71994 298.16139 
L 647.71994 53.143346 
L 614.788956 53.143346 
z
" clip-path="url(#p0ee141bb85)" style="fill: #1f77b4"/>
   </g>
   <g id="patch_10">
    <path d="M 655.952686 298.16139 
L 688.883669 298.16139 
L 688.883669 109.097947 
L 655.952686 109.097947 
z
" clip-path="url(#p0ee141bb85)" style="fill: #1f77b4"/>
   </g>
   <g id="patch_11">
    <path d="M 697.116415 298.16139 
L 730.047398 298.16139 
L 730.047398 147.322573 
L 697.116415 147.322573 
z
" clip-path="url(#p0ee141bb85)" style="fill: #1f77b4"/>
   </g>
   <g id="patch_12">
    <path d="M 738.280144 298.16139 
L 771.211127 298.16139 
L 771.211127 173.332328 
L 738.280144 173.332328 
z
" clip-path="url(#p0ee141bb85)" style="fill: #1f77b4"/>
   </g>
   <g id="patch_13">
    <path d="M 779.443873 298.16139 
L 812.374856 298.16139 
L 812.374856 207.253596 
L 779.443873 207.253596 
z
" clip-path="url(#p0ee141bb85)" style="fill: #1f77b4"/>
   </g>
   <g id="patch_14">
    <path d="M 820.607602 298.16139 
L 853.538585 298.16139 
L 853.538585 217.774133 
L 820.607602 217.774133 
z
" clip-path="url(#p0ee141bb85)" style="fill: #1f77b4"/>
   </g>
   <g id="patch_15">
    <path d="M 861.771331 298.16139 
L 894.702314 298.16139 
L 894.702314 258.200703 
L 861.771331 258.200703 
z
" clip-path="url(#p0ee141bb85)" style="fill: #1f77b4"/>
   </g>
   <g id="patch_16">
    <path d="M 902.93506 298.16139 
L 935.866044 298.16139 
L 935.866044 269.027261 
L 902.93506 269.027261 
z
" clip-path="url(#p0ee141bb85)" style="fill: #1f77b4"/>
   </g>
   <g id="patch_17">
    <path d="M 944.098789 298.16139 
L 977.029773 298.16139 
L 977.029773 269.966317 
L 944.098789 269.966317 
z
" clip-path="url(#p0ee141bb85)" style="fill: #1f77b4"/>
   </g>
   <g id="matplotlib.axis_3">
    <g id="xtick_7">
     <g id="line2d_17">
      <g>
       <use xlink:href="#mc03caffd9a" x="590.090719" y="298.16139" style="stroke: #000000; stroke-width: 0.8"/>
      </g>
     </g>
     <g id="text_18">
      <!-- (6, 3, 1, 2) -->
      <g transform="translate(551.623005 347.531449) rotate(-45) scale(0.1 -0.1)">
       <defs>
        <path id="DejaVuSans-2c" d="M 750 794 
L 1409 794 
L 1409 256 
L 897 -744 
L 494 -744 
L 750 256 
L 750 794 
z
" transform="scale(0.015625)"/>
       </defs>
       <use xlink:href="#DejaVuSans-28"/>
       <use xlink:href="#DejaVuSans-36" transform="translate(39.013672 0)"/>
       <use xlink:href="#DejaVuSans-2c" transform="translate(102.636719 0)"/>
       <use xlink:href="#DejaVuSans-20" transform="translate(134.423828 0)"/>
       <use xlink:href="#DejaVuSans-33" transform="translate(166.210938 0)"/>
       <use xlink:href="#DejaVuSans-2c" transform="translate(229.833984 0)"/>
       <use xlink:href="#DejaVuSans-20" transform="translate(261.621094 0)"/>
       <use xlink:href="#DejaVuSans-31" transform="translate(293.408203 0)"/>
       <use xlink:href="#DejaVuSans-2c" transform="translate(357.03125 0)"/>
       <use xlink:href="#DejaVuSans-20" transform="translate(388.818359 0)"/>
       <use xlink:href="#DejaVuSans-32" transform="translate(420.605469 0)"/>
       <use xlink:href="#DejaVuSans-29" transform="translate(484.228516 0)"/>
      </g>
     </g>
    </g>
    <g id="xtick_8">
     <g id="line2d_18">
      <g>
       <use xlink:href="#mc03caffd9a" x="631.254448" y="298.16139" style="stroke: #000000; stroke-width: 0.8"/>
      </g>
     </g>
     <g id="text_19">
      <!-- (1, 1, 3, 6) -->
      <g transform="translate(592.786734 347.531449) rotate(-45) scale(0.1 -0.1)">
       <use xlink:href="#DejaVuSans-28"/>
       <use xlink:href="#DejaVuSans-31" transform="translate(39.013672 0)"/>
       <use xlink:href="#DejaVuSans-2c" transform="translate(102.636719 0)"/>
       <use xlink:href="#DejaVuSans-20" transform="translate(134.423828 0)"/>
       <use xlink:href="#DejaVuSans-31" transform="translate(166.210938 0)"/>
       <use xlink:href="#DejaVuSans-2c" transform="translate(229.833984 0)"/>
       <use xlink:href="#DejaVuSans-20" transform="translate(261.621094 0)"/>
       <use xlink:href="#DejaVuSans-33" transform="translate(293.408203 0)"/>
       <use xlink:href="#DejaVuSans-2c" transform="translate(357.03125 0)"/>
       <use xlink:href="#DejaVuSans-20" transform="translate(388.818359 0)"/>
       <use xlink:href="#DejaVuSans-36" transform="translate(420.605469 0)"/>
       <use xlink:href="#DejaVuSans-29" transform="translate(484.228516 0)"/>
      </g>
     </g>
    </g>
    <g id="xtick_9">
     <g id="line2d_19">
      <g>
       <use xlink:href="#mc03caffd9a" x="672.418177" y="298.16139" style="stroke: #000000; stroke-width: 0.8"/>
      </g>
     </g>
     <g id="text_20">
      <!-- (2, 1, 2, 6) -->
      <g transform="translate(633.950463 347.531449) rotate(-45) scale(0.1 -0.1)">
       <use xlink:href="#DejaVuSans-28"/>
       <use xlink:href="#DejaVuSans-32" transform="translate(39.013672 0)"/>
       <use xlink:href="#DejaVuSans-2c" transform="translate(102.636719 0)"/>
       <use xlink:href="#DejaVuSans-20" transform="translate(134.423828 0)"/>
       <use xlink:href="#DejaVuSans-31" transform="translate(166.210938 0)"/>
       <use xlink:href="#DejaVuSans-2c" transform="translate(229.833984 0)"/>
       <use xlink:href="#DejaVuSans-20" transform="translate(261.621094 0)"/>
       <use xlink:href="#DejaVuSans-32" transform="translate(293.408203 0)"/>
       <use xlink:href="#DejaVuSans-2c" transform="translate(357.03125 0)"/>
       <use xlink:href="#DejaVuSans-20" transform="translate(388.818359 0)"/>
       <use xlink:href="#DejaVuSans-36" transform="translate(420.605469 0)"/>
       <use xlink:href="#DejaVuSans-29" transform="translate(484.228516 0)"/>
      </g>
     </g>
    </g>
    <g id="xtick_10">
     <g id="line2d_20">
      <g>
       <use xlink:href="#mc03caffd9a" x="713.581906" y="298.16139" style="stroke: #000000; stroke-width: 0.8"/>
      </g>
     </g>
     <g id="text_21">
      <!-- (1, 3, 6, 2) -->
      <g transform="translate(675.114193 347.531449) rotate(-45) scale(0.1 -0.1)">
       <use xlink:href="#DejaVuSans-28"/>
       <use xlink:href="#DejaVuSans-31" transform="translate(39.013672 0)"/>
       <use xlink:href="#DejaVuSans-2c" transform="translate(102.636719 0)"/>
       <use xlink:href="#DejaVuSans-20" transform="translate(134.423828 0)"/>
       <use xlink:href="#DejaVuSans-33" transform="translate(166.210938 0)"/>
       <use xlink:href="#DejaVuSans-2c" transform="translate(229.833984 0)"/>
       <use xlink:href="#DejaVuSans-20" transform="translate(261.621094 0)"/>
       <use xlink:href="#DejaVuSans-36" transform="translate(293.408203 0)"/>
       <use xlink:href="#DejaVuSans-2c" transform="translate(357.03125 0)"/>
       <use xlink:href="#DejaVuSans-20" transform="translate(388.818359 0)"/>
       <use xlink:href="#DejaVuSans-32" transform="translate(420.605469 0)"/>
       <use xlink:href="#DejaVuSans-29" transform="translate(484.228516 0)"/>
      </g>
     </g>
    </g>
    <g id="xtick_11">
     <g id="line2d_21">
      <g>
       <use xlink:href="#mc03caffd9a" x="754.745635" y="298.16139" style="stroke: #000000; stroke-width: 0.8"/>
      </g>
     </g>
     <g id="text_22">
      <!-- (7, 3, 0, 2) -->
      <g transform="translate(716.277922 347.531449) rotate(-45) scale(0.1 -0.1)">
       <use xlink:href="#DejaVuSans-28"/>
       <use xlink:href="#DejaVuSans-37" transform="translate(39.013672 0)"/>
       <use xlink:href="#DejaVuSans-2c" transform="translate(102.636719 0)"/>
       <use xlink:href="#DejaVuSans-20" transform="translate(134.423828 0)"/>
       <use xlink:href="#DejaVuSans-33" transform="translate(166.210938 0)"/>
       <use xlink:href="#DejaVuSans-2c" transform="translate(229.833984 0)"/>
       <use xlink:href="#DejaVuSans-20" transform="translate(261.621094 0)"/>
       <use xlink:href="#DejaVuSans-30" transform="translate(293.408203 0)"/>
       <use xlink:href="#DejaVuSans-2c" transform="translate(357.03125 0)"/>
       <use xlink:href="#DejaVuSans-20" transform="translate(388.818359 0)"/>
       <use xlink:href="#DejaVuSans-32" transform="translate(420.605469 0)"/>
       <use xlink:href="#DejaVuSans-29" transform="translate(484.228516 0)"/>
      </g>
     </g>
    </g>
    <g id="xtick_12">
     <g id="line2d_22">
      <g>
       <use xlink:href="#mc03caffd9a" x="795.909365" y="298.16139" style="stroke: #000000; stroke-width: 0.8"/>
      </g>
     </g>
     <g id="text_23">
      <!-- (3, 3, 4, 2) -->
      <g transform="translate(757.441651 347.531449) rotate(-45) scale(0.1 -0.1)">
       <use xlink:href="#DejaVuSans-28"/>
       <use xlink:href="#DejaVuSans-33" transform="translate(39.013672 0)"/>
       <use xlink:href="#DejaVuSans-2c" transform="translate(102.636719 0)"/>
       <use xlink:href="#DejaVuSans-20" transform="translate(134.423828 0)"/>
       <use xlink:href="#DejaVuSans-33" transform="translate(166.210938 0)"/>
       <use xlink:href="#DejaVuSans-2c" transform="translate(229.833984 0)"/>
       <use xlink:href="#DejaVuSans-20" transform="translate(261.621094 0)"/>
       <use xlink:href="#DejaVuSans-34" transform="translate(293.408203 0)"/>
       <use xlink:href="#DejaVuSans-2c" transform="translate(357.03125 0)"/>
       <use xlink:href="#DejaVuSans-20" transform="translate(388.818359 0)"/>
       <use xlink:href="#DejaVuSans-32" transform="translate(420.605469 0)"/>
       <use xlink:href="#DejaVuSans-29" transform="translate(484.228516 0)"/>
      </g>
     </g>
    </g>
    <g id="xtick_13">
     <g id="line2d_23">
      <g>
       <use xlink:href="#mc03caffd9a" x="837.073094" y="298.16139" style="stroke: #000000; stroke-width: 0.8"/>
      </g>
     </g>
     <g id="text_24">
      <!-- (0, 3, 7, 2) -->
      <g transform="translate(798.60538 347.531449) rotate(-45) scale(0.1 -0.1)">
       <use xlink:href="#DejaVuSans-28"/>
       <use xlink:href="#DejaVuSans-30" transform="translate(39.013672 0)"/>
       <use xlink:href="#DejaVuSans-2c" transform="translate(102.636719 0)"/>
       <use xlink:href="#DejaVuSans-20" transform="translate(134.423828 0)"/>
       <use xlink:href="#DejaVuSans-33" transform="translate(166.210938 0)"/>
       <use xlink:href="#DejaVuSans-2c" transform="translate(229.833984 0)"/>
       <use xlink:href="#DejaVuSans-20" transform="translate(261.621094 0)"/>
       <use xlink:href="#DejaVuSans-37" transform="translate(293.408203 0)"/>
       <use xlink:href="#DejaVuSans-2c" transform="translate(357.03125 0)"/>
       <use xlink:href="#DejaVuSans-20" transform="translate(388.818359 0)"/>
       <use xlink:href="#DejaVuSans-32" transform="translate(420.605469 0)"/>
       <use xlink:href="#DejaVuSans-29" transform="translate(484.228516 0)"/>
      </g>
     </g>
    </g>
    <g id="xtick_14">
     <g id="line2d_24">
      <g>
       <use xlink:href="#mc03caffd9a" x="878.236823" y="298.16139" style="stroke: #000000; stroke-width: 0.8"/>
      </g>
     </g>
     <g id="text_25">
      <!-- (5, 3, 2, 2) -->
      <g transform="translate(839.769109 347.531449) rotate(-45) scale(0.1 -0.1)">
       <use xlink:href="#DejaVuSans-28"/>
       <use xlink:href="#DejaVuSans-35" transform="translate(39.013672 0)"/>
       <use xlink:href="#DejaVuSans-2c" transform="translate(102.636719 0)"/>
       <use xlink:href="#DejaVuSans-20" transform="translate(134.423828 0)"/>
       <use xlink:href="#DejaVuSans-33" transform="translate(166.210938 0)"/>
       <use xlink:href="#DejaVuSans-2c" transform="translate(229.833984 0)"/>
       <use xlink:href="#DejaVuSans-20" transform="translate(261.621094 0)"/>
       <use xlink:href="#DejaVuSans-32" transform="translate(293.408203 0)"/>
       <use xlink:href="#DejaVuSans-2c" transform="translate(357.03125 0)"/>
       <use xlink:href="#DejaVuSans-20" transform="translate(388.818359 0)"/>
       <use xlink:href="#DejaVuSans-32" transform="translate(420.605469 0)"/>
       <use xlink:href="#DejaVuSans-29" transform="translate(484.228516 0)"/>
      </g>
     </g>
    </g>
    <g id="xtick_15">
     <g id="line2d_25">
      <g>
       <use xlink:href="#mc03caffd9a" x="919.400552" y="298.16139" style="stroke: #000000; stroke-width: 0.8"/>
      </g>
     </g>
     <g id="text_26">
      <!-- (3, 1, 1, 6) -->
      <g transform="translate(880.932838 347.531449) rotate(-45) scale(0.1 -0.1)">
       <use xlink:href="#DejaVuSans-28"/>
       <use xlink:href="#DejaVuSans-33" transform="translate(39.013672 0)"/>
       <use xlink:href="#DejaVuSans-2c" transform="translate(102.636719 0)"/>
       <use xlink:href="#DejaVuSans-20" transform="translate(134.423828 0)"/>
       <use xlink:href="#DejaVuSans-31" transform="translate(166.210938 0)"/>
       <use xlink:href="#DejaVuSans-2c" transform="translate(229.833984 0)"/>
       <use xlink:href="#DejaVuSans-20" transform="translate(261.621094 0)"/>
       <use xlink:href="#DejaVuSans-31" transform="translate(293.408203 0)"/>
       <use xlink:href="#DejaVuSans-2c" transform="translate(357.03125 0)"/>
       <use xlink:href="#DejaVuSans-20" transform="translate(388.818359 0)"/>
       <use xlink:href="#DejaVuSans-36" transform="translate(420.605469 0)"/>
       <use xlink:href="#DejaVuSans-29" transform="translate(484.228516 0)"/>
      </g>
     </g>
    </g>
    <g id="xtick_16">
     <g id="line2d_26">
      <g>
       <use xlink:href="#mc03caffd9a" x="960.564281" y="298.16139" style="stroke: #000000; stroke-width: 0.8"/>
      </g>
     </g>
     <g id="text_27">
      <!-- (4, 3, 3, 2) -->
      <g transform="translate(922.096567 347.531449) rotate(-45) scale(0.1 -0.1)">
       <use xlink:href="#DejaVuSans-28"/>
       <use xlink:href="#DejaVuSans-34" transform="translate(39.013672 0)"/>
       <use xlink:href="#DejaVuSans-2c" transform="translate(102.636719 0)"/>
       <use xlink:href="#DejaVuSans-20" transform="translate(134.423828 0)"/>
       <use xlink:href="#DejaVuSans-33" transform="translate(166.210938 0)"/>
       <use xlink:href="#DejaVuSans-2c" transform="translate(229.833984 0)"/>
       <use xlink:href="#DejaVuSans-20" transform="translate(261.621094 0)"/>
       <use xlink:href="#DejaVuSans-33" transform="translate(293.408203 0)"/>
       <use xlink:href="#DejaVuSans-2c" transform="translate(357.03125 0)"/>
       <use xlink:href="#DejaVuSans-20" transform="translate(388.818359 0)"/>
       <use xlink:href="#DejaVuSans-32" transform="translate(420.605469 0)"/>
       <use xlink:href="#DejaVuSans-29" transform="translate(484.228516 0)"/>
      </g>
     </g>
    </g>
   </g>
   <g id="matplotlib.axis_4">
    <g id="ytick_10">
     <g id="line2d_27">
      <g>
       <use xlink:href="#m1df52907ee" x="553.455" y="298.16139" style="stroke: #000000; stroke-width: 0.8"/>
      </g>
     </g>
     <g id="text_28">
      <!-- 0.0000 -->
      <g transform="translate(511.464375 301.960608) scale(0.1 -0.1)">
       <defs>
        <path id="DejaVuSans-2e" d="M 684 794 
L 1344 794 
L 1344 0 
L 684 0 
L 684 794 
z
" transform="scale(0.015625)"/>
       </defs>
       <use xlink:href="#DejaVuSans-30"/>
       <use xlink:href="#DejaVuSans-2e" transform="translate(63.623047 0)"/>
       <use xlink:href="#DejaVuSans-30" transform="translate(95.410156 0)"/>
       <use xlink:href="#DejaVuSans-30" transform="translate(159.033203 0)"/>
       <use xlink:href="#DejaVuSans-30" transform="translate(222.65625 0)"/>
       <use xlink:href="#DejaVuSans-30" transform="translate(286.279297 0)"/>
      </g>
     </g>
    </g>
    <g id="ytick_11">
     <g id="line2d_28">
      <g>
       <use xlink:href="#m1df52907ee" x="553.455" y="245.275433" style="stroke: #000000; stroke-width: 0.8"/>
      </g>
     </g>
     <g id="text_29">
      <!-- 0.0001 -->
      <g transform="translate(511.464375 249.074652) scale(0.1 -0.1)">
       <use xlink:href="#DejaVuSans-30"/>
       <use xlink:href="#DejaVuSans-2e" transform="translate(63.623047 0)"/>
       <use xlink:href="#DejaVuSans-30" transform="translate(95.410156 0)"/>
       <use xlink:href="#DejaVuSans-30" transform="translate(159.033203 0)"/>
       <use xlink:href="#DejaVuSans-30" transform="translate(222.65625 0)"/>
       <use xlink:href="#DejaVuSans-31" transform="translate(286.279297 0)"/>
      </g>
     </g>
    </g>
    <g id="ytick_12">
     <g id="line2d_29">
      <g>
       <use xlink:href="#m1df52907ee" x="553.455" y="192.389477" style="stroke: #000000; stroke-width: 0.8"/>
      </g>
     </g>
     <g id="text_30">
      <!-- 0.0002 -->
      <g transform="translate(511.464375 196.188696) scale(0.1 -0.1)">
       <use xlink:href="#DejaVuSans-30"/>
       <use xlink:href="#DejaVuSans-2e" transform="translate(63.623047 0)"/>
       <use xlink:href="#DejaVuSans-30" transform="translate(95.410156 0)"/>
       <use xlink:href="#DejaVuSans-30" transform="translate(159.033203 0)"/>
       <use xlink:href="#DejaVuSans-30" transform="translate(222.65625 0)"/>
       <use xlink:href="#DejaVuSans-32" transform="translate(286.279297 0)"/>
      </g>
     </g>
    </g>
    <g id="ytick_13">
     <g id="line2d_30">
      <g>
       <use xlink:href="#m1df52907ee" x="553.455" y="139.503521" style="stroke: #000000; stroke-width: 0.8"/>
      </g>
     </g>
     <g id="text_31">
      <!-- 0.0003 -->
      <g transform="translate(511.464375 143.302739) scale(0.1 -0.1)">
       <use xlink:href="#DejaVuSans-30"/>
       <use xlink:href="#DejaVuSans-2e" transform="translate(63.623047 0)"/>
       <use xlink:href="#DejaVuSans-30" transform="translate(95.410156 0)"/>
       <use xlink:href="#DejaVuSans-30" transform="translate(159.033203 0)"/>
       <use xlink:href="#DejaVuSans-30" transform="translate(222.65625 0)"/>
       <use xlink:href="#DejaVuSans-33" transform="translate(286.279297 0)"/>
      </g>
     </g>
    </g>
    <g id="ytick_14">
     <g id="line2d_31">
      <g>
       <use xlink:href="#m1df52907ee" x="553.455" y="86.617564" style="stroke: #000000; stroke-width: 0.8"/>
      </g>
     </g>
     <g id="text_32">
      <!-- 0.0004 -->
      <g transform="translate(511.464375 90.416783) scale(0.1 -0.1)">
       <use xlink:href="#DejaVuSans-30"/>
       <use xlink:href="#DejaVuSans-2e" transform="translate(63.623047 0)"/>
       <use xlink:href="#DejaVuSans-30" transform="translate(95.410156 0)"/>
       <use xlink:href="#DejaVuSans-30" transform="translate(159.033203 0)"/>
       <use xlink:href="#DejaVuSans-30" transform="translate(222.65625 0)"/>
       <use xlink:href="#DejaVuSans-34" transform="translate(286.279297 0)"/>
      </g>
     </g>
    </g>
    <g id="ytick_15">
     <g id="line2d_32">
      <g>
       <use xlink:href="#m1df52907ee" x="553.455" y="33.731608" style="stroke: #000000; stroke-width: 0.8"/>
      </g>
     </g>
     <g id="text_33">
      <!-- 0.0005 -->
      <g transform="translate(511.464375 37.530827) scale(0.1 -0.1)">
       <use xlink:href="#DejaVuSans-30"/>
       <use xlink:href="#DejaVuSans-2e" transform="translate(63.623047 0)"/>
       <use xlink:href="#DejaVuSans-30" transform="translate(95.410156 0)"/>
       <use xlink:href="#DejaVuSans-30" transform="translate(159.033203 0)"/>
       <use xlink:href="#DejaVuSans-30" transform="translate(222.65625 0)"/>
       <use xlink:href="#DejaVuSans-35" transform="translate(286.279297 0)"/>
      </g>
     </g>
    </g>
   </g>
   <g id="patch_18">
    <path d="M 553.455 298.16139 
L 553.455 26.88 
" style="fill: none; stroke: #000000; stroke-width: 0.8; stroke-linejoin: miter; stroke-linecap: square"/>
   </g>
   <g id="patch_19">
    <path d="M 997.2 298.16139 
L 997.2 26.88 
" style="fill: none; stroke: #000000; stroke-width: 0.8; stroke-linejoin: miter; stroke-linecap: square"/>
   </g>
   <g id="patch_20">
    <path d="M 553.455 298.16139 
L 997.2 298.16139 
" style="fill: none; stroke: #000000; stroke-width: 0.8; stroke-linejoin: miter; stroke-linecap: square"/>
   </g>
   <g id="patch_21">
    <path d="M 553.455 26.88 
L 997.2 26.88 
" style="fill: none; stroke: #000000; stroke-width: 0.8; stroke-linejoin: miter; stroke-linecap: square"/>
   </g>
   <g id="text_34">
    <!-- Top Feasible States -->
    <g transform="translate(717.930938 20.88) scale(0.12 -0.12)">
     <defs>
      <path id="DejaVuSans-54" d="M -19 4666 
L 3928 4666 
L 3928 4134 
L 2272 4134 
L 2272 0 
L 1638 0 
L 1638 4134 
L -19 4134 
L -19 4666 
z
" transform="scale(0.015625)"/>
      <path id="DejaVuSans-46" d="M 628 4666 
L 3309 4666 
L 3309 4134 
L 1259 4134 
L 1259 2759 
L 3109 2759 
L 3109 2228 
L 1259 2228 
L 1259 0 
L 628 0 
L 628 4666 
z
" transform="scale(0.015625)"/>
      <path id="DejaVuSans-61" d="M 2194 1759 
Q 1497 1759 1228 1600 
Q 959 1441 959 1056 
Q 959 750 1161 570 
Q 1363 391 1709 391 
Q 2188 391 2477 730 
Q 2766 1069 2766 1631 
L 2766 1759 
L 2194 1759 
z
M 3341 1997 
L 3341 0 
L 2766 0 
L 2766 531 
Q 2569 213 2275 61 
Q 1981 -91 1556 -91 
Q 1019 -91 701 211 
Q 384 513 384 1019 
Q 384 1609 779 1909 
Q 1175 2209 1959 2209 
L 2766 2209 
L 2766 2266 
Q 2766 2663 2505 2880 
Q 2244 3097 1772 3097 
Q 1472 3097 1187 3025 
Q 903 2953 641 2809 
L 641 3341 
Q 956 3463 1253 3523 
Q 1550 3584 1831 3584 
Q 2591 3584 2966 3190 
Q 3341 2797 3341 1997 
z
" transform="scale(0.015625)"/>
      <path id="DejaVuSans-73" d="M 2834 3397 
L 2834 2853 
Q 2591 2978 2328 3040 
Q 2066 3103 1784 3103 
Q 1356 3103 1142 2972 
Q 928 2841 928 2578 
Q 928 2378 1081 2264 
Q 1234 2150 1697 2047 
L 1894 2003 
Q 2506 1872 2764 1633 
Q 3022 1394 3022 966 
Q 3022 478 2636 193 
Q 2250 -91 1575 -91 
Q 1294 -91 989 -36 
Q 684 19 347 128 
L 347 722 
Q 666 556 975 473 
Q 1284 391 1588 391 
Q 1994 391 2212 530 
Q 2431 669 2431 922 
Q 2431 1156 2273 1281 
Q 2116 1406 1581 1522 
L 1381 1569 
Q 847 1681 609 1914 
Q 372 2147 372 2553 
Q 372 3047 722 3315 
Q 1072 3584 1716 3584 
Q 2034 3584 2315 3537 
Q 2597 3491 2834 3397 
z
" transform="scale(0.015625)"/>
      <path id="DejaVuSans-69" d="M 603 3500 
L 1178 3500 
L 1178 0 
L 603 0 
L 603 3500 
z
M 603 4863 
L 1178 4863 
L 1178 4134 
L 603 4134 
L 603 4863 
z
" transform="scale(0.015625)"/>
      <path id="DejaVuSans-62" d="M 3116 1747 
Q 3116 2381 2855 2742 
Q 2594 3103 2138 3103 
Q 1681 3103 1420 2742 
Q 1159 2381 1159 1747 
Q 1159 1113 1420 752 
Q 1681 391 2138 391 
Q 2594 391 2855 752 
Q 3116 1113 3116 1747 
z
M 1159 2969 
Q 1341 3281 1617 3432 
Q 1894 3584 2278 3584 
Q 2916 3584 3314 3078 
Q 3713 2572 3713 1747 
Q 3713 922 3314 415 
Q 2916 -91 2278 -91 
Q 1894 -91 1617 61 
Q 1341 213 1159 525 
L 1159 0 
L 581 0 
L 581 4863 
L 1159 4863 
L 1159 2969 
z
" transform="scale(0.015625)"/>
      <path id="DejaVuSans-6c" d="M 603 4863 
L 1178 4863 
L 1178 0 
L 603 0 
L 603 4863 
z
" transform="scale(0.015625)"/>
      <path id="DejaVuSans-53" d="M 3425 4513 
L 3425 3897 
Q 3066 4069 2747 4153 
Q 2428 4238 2131 4238 
Q 1616 4238 1336 4038 
Q 1056 3838 1056 3469 
Q 1056 3159 1242 3001 
Q 1428 2844 1947 2747 
L 2328 2669 
Q 3034 2534 3370 2195 
Q 3706 1856 3706 1288 
Q 3706 609 3251 259 
Q 2797 -91 1919 -91 
Q 1588 -91 1214 -16 
Q 841 59 441 206 
L 441 856 
Q 825 641 1194 531 
Q 1563 422 1919 422 
Q 2459 422 2753 634 
Q 3047 847 3047 1241 
Q 3047 1584 2836 1778 
Q 2625 1972 2144 2069 
L 1759 2144 
Q 1053 2284 737 2584 
Q 422 2884 422 3419 
Q 422 4038 858 4394 
Q 1294 4750 2059 4750 
Q 2388 4750 2728 4690 
Q 3069 4631 3425 4513 
z
" transform="scale(0.015625)"/>
      <path id="DejaVuSans-74" d="M 1172 4494 
L 1172 3500 
L 2356 3500 
L 2356 3053 
L 1172 3053 
L 1172 1153 
Q 1172 725 1289 603 
Q 1406 481 1766 481 
L 2356 481 
L 2356 0 
L 1766 0 
Q 1100 0 847 248 
Q 594 497 594 1153 
L 594 3053 
L 172 3053 
L 172 3500 
L 594 3500 
L 594 4494 
L 1172 4494 
z
" transform="scale(0.015625)"/>
     </defs>
     <use xlink:href="#DejaVuSans-54"/>
     <use xlink:href="#DejaVuSans-6f" transform="translate(44.083984 0)"/>
     <use xlink:href="#DejaVuSans-70" transform="translate(105.265625 0)"/>
     <use xlink:href="#DejaVuSans-20" transform="translate(168.742188 0)"/>
     <use xlink:href="#DejaVuSans-46" transform="translate(200.529297 0)"/>
     <use xlink:href="#DejaVuSans-65" transform="translate(252.548828 0)"/>
     <use xlink:href="#DejaVuSans-61" transform="translate(314.072266 0)"/>
     <use xlink:href="#DejaVuSans-73" transform="translate(375.351562 0)"/>
     <use xlink:href="#DejaVuSans-69" transform="translate(427.451172 0)"/>
     <use xlink:href="#DejaVuSans-62" transform="translate(455.234375 0)"/>
     <use xlink:href="#DejaVuSans-6c" transform="translate(518.710938 0)"/>
     <use xlink:href="#DejaVuSans-65" transform="translate(546.494141 0)"/>
     <use xlink:href="#DejaVuSans-20" transform="translate(608.017578 0)"/>
     <use xlink:href="#DejaVuSans-53" transform="translate(639.804688 0)"/>
     <use xlink:href="#DejaVuSans-74" transform="translate(703.28125 0)"/>
     <use xlink:href="#DejaVuSans-61" transform="translate(742.490234 0)"/>
     <use xlink:href="#DejaVuSans-74" transform="translate(803.769531 0)"/>
     <use xlink:href="#DejaVuSans-65" transform="translate(842.978516 0)"/>
     <use xlink:href="#DejaVuSans-73" transform="translate(904.501953 0)"/>
    </g>
   </g>
  </g>
 </g>
 <defs>
  <clipPath id="p6eda4b1791">
   <rect x="57.17" y="26.88" width="443.745" height="271.28139"/>
  </clipPath>
  <clipPath id="p0ee141bb85">
   <rect x="553.455" y="26.88" width="443.745" height="271.28139"/>
  </clipPath>
 </defs>
</svg>
